<?xml version="1.0" encoding="UTF-8" standalone="no"?>
<!-- Created with Inkscape (http://www.inkscape.org/) -->

<svg
   width="337.47604mm"
   height="330.86145mm"
   viewBox="0 0 337.47604 330.86145"
   version="1.1"
   id="svg5"
   inkscape:version="1.2.2 (732a01da63, 2022-12-09, custom)"
   sodipodi:docname="Ярмарка.svg"
   xmlns:inkscape="http://www.inkscape.org/namespaces/inkscape"
   xmlns:sodipodi="http://sodipodi.sourceforge.net/DTD/sodipodi-0.dtd"
   xmlns="http://www.w3.org/2000/svg"
   xmlns:svg="http://www.w3.org/2000/svg">
  <sodipodi:namedview
     id="namedview7"
     pagecolor="#ffffff"
     bordercolor="#666666"
     borderopacity="1.0"
     inkscape:showpageshadow="2"
     inkscape:pageopacity="0.0"
     inkscape:pagecheckerboard="0"
     inkscape:deskcolor="#d1d1d1"
     inkscape:document-units="mm"
     showgrid="true"
     inkscape:zoom="0.49260384"
     inkscape:cx="785.62117"
     inkscape:cy="803.89143"
     inkscape:window-width="960"
     inkscape:window-height="1043"
     inkscape:window-x="20"
     inkscape:window-y="20"
     inkscape:window-maximized="0"
     inkscape:current-layer="layer1">
    <inkscape:grid
       type="xygrid"
       id="grid132"
       spacingx="6.6145834"
       spacingy="6.6145834"
       originx="39.819791"
       originy="33.205207" />
  </sodipodi:namedview>
  <defs
     id="defs2" />
  <g
     inkscape:label="Слой 1"
     inkscape:groupmode="layer"
     id="layer1"
     transform="translate(39.819791,33.205207)">
    <circle
       style="fill:none;stroke:#000000;stroke-width:0.264999;stroke-linecap:round;stroke-linejoin:round"
       id="path236"
       cx="66.145836"
       cy="99.21875"
       r="6.614583" />
    <circle
       style="fill:none;stroke:#000000;stroke-width:0.264999;stroke-linecap:round;stroke-linejoin:round"
       id="path238"
       cx="66.145836"
       cy="99.21875"
       r="19.84375" />
    <path
       style="fill:none;stroke:#000000;stroke-width:0.264583px;stroke-linecap:butt;stroke-linejoin:miter;stroke-opacity:1"
       d="m 85.989584,85.989584 -6.614585,-6.614585 -39.687499,2e-6 m -6.614583,0 v 13.229167 m 0,6.614583 v 6.614579 l 13.229166,13.22917 h 19.843749 13.229167 l 6.614583,-6.61458 2e-6,-19.843752"
       id="path294"
       sodipodi:nodetypes="cccccccccccc" />
    <path
       style="fill:none;stroke:#000000;stroke-width:0.264583px;stroke-linecap:butt;stroke-linejoin:miter;stroke-opacity:1"
       d="M 33.072916,79.374999 V 72.760416 H 46.302083"
       id="path296" />
    <path
       style="fill:none;stroke:#000000;stroke-width:0.264583px;stroke-linecap:butt;stroke-linejoin:miter;stroke-opacity:1"
       d="m 33.072916,85.989582 -6.614583,6.614584 V 112.44792 L 39.6875,125.67708 m 6.614584,0 -10e-7,-6.61458"
       id="path298"
       sodipodi:nodetypes="cccccc" />
    <path
       style="fill:none;stroke:#000000;stroke-width:0.264583px;stroke-linecap:butt;stroke-linejoin:miter;stroke-opacity:1"
       d="m 79.374999,119.0625 -6.614583,6.61458 H 46.302083"
       id="path300" />
    <path
       style="fill:none;stroke:#000000;stroke-width:0.264583px;stroke-linecap:butt;stroke-linejoin:miter;stroke-opacity:1"
       d="M 33.072917,59.531251 V 46.302085 H 39.6875 v -6.614583 l 6.614583,-6.614584 h 6.614583 v 6.614584 h 6.614583 v 6.614583 H 46.302083 v -6.614583 6.614583 13.229166 z"
       id="path398"
       sodipodi:nodetypes="cccccccccccccc" />
    <path
       style="fill:none;stroke:#000000;stroke-width:0.264583px;stroke-linecap:butt;stroke-linejoin:miter;stroke-opacity:1"
       d="m 92.604168,145.52083 -2e-6,6.61459 H 85.989582 79.374999 72.760417 59.531251 v -6.61459 H 46.302084 M 39.6875,138.90625 v -13.22917 m 6.614584,0 h 26.458332 l 6.614583,-6.61458 h 13.229167 l 2e-6,19.84375"
       id="path400"
       sodipodi:nodetypes="ccccccccccccccc" />
    <path
       style="fill:none;stroke:#000000;stroke-width:0.264583px;stroke-linecap:butt;stroke-linejoin:miter;stroke-opacity:1"
       d="M 105.83334,125.67708 H 92.604166 l 2e-6,13.22917 m 0,6.61458 h 13.229162 l 1e-5,-6.61458"
       id="path402"
       sodipodi:nodetypes="cccccc" />
    <path
       style="fill:none;stroke:#000000;stroke-width:0.264583px;stroke-linecap:butt;stroke-linejoin:miter;stroke-opacity:1"
       d="m 105.83333,138.90625 h 6.61458 m 0,-13.22917 h -6.61458"
       id="path404"
       sodipodi:nodetypes="cccc" />
    <path
       style="fill:none;stroke:#000000;stroke-width:0.264583px;stroke-linecap:butt;stroke-linejoin:miter;stroke-opacity:1"
       d="m 99.218749,132.29167 h 6.614581"
       id="path406" />
    <path
       style="fill:none;stroke:#000000;stroke-width:0.264583px;stroke-linecap:butt;stroke-linejoin:miter;stroke-opacity:1"
       d="m 112.44792,138.90625 v 6.61458 h 13.22917 v -39.6875 h -13.22917 v 19.84375"
       id="path408"
       sodipodi:nodetypes="cccccc" />
    <path
       style="fill:none;stroke:#000000;stroke-width:0.264583px;stroke-linecap:butt;stroke-linejoin:miter;stroke-dasharray:0.264583, 0.264583;stroke-dashoffset:0;stroke-opacity:1"
       d="m 112.44792,79.375001 v 26.458329 h 13.22917 V 79.375003 Z"
       id="path410"
       sodipodi:nodetypes="ccccc" />
    <path
       style="fill:none;stroke:#000000;stroke-width:0.264583px;stroke-linecap:butt;stroke-linejoin:miter;stroke-opacity:1"
       d="m 33.072916,132.29167 v 6.61458 H 39.6875 v -6.61458 z"
       id="path966" />
    <path
       style="fill:none;stroke:#000000;stroke-width:0.264583px;stroke-linecap:butt;stroke-linejoin:miter;stroke-opacity:1"
       d="M 39.6875,145.52083 H 19.84375 v 6.61459 H 39.6875 Z"
       id="path968" />
    <path
       style="fill:none;stroke:#000000;stroke-width:0.264583px;stroke-linecap:butt;stroke-linejoin:miter;stroke-opacity:1"
       d="m 72.760417,152.13542 v 13.22916 h 13.229165 v -13.22916 z"
       id="path970"
       sodipodi:nodetypes="ccccc" />
    <path
       style="fill:none;stroke:#000000;stroke-width:0.264583px;stroke-linecap:butt;stroke-linejoin:miter;stroke-opacity:1"
       d="m 59.531249,145.52083 v 19.84375 H 46.302083 v -19.84375 z"
       id="path972" />
    <path
       style="fill:none;stroke:#000000;stroke-width:0.264583px;stroke-linecap:butt;stroke-linejoin:miter;stroke-opacity:1"
       d="m 13.229167,132.29167 h 6.614583 v 6.61458 m 0,6.61458 v 6.61459 H 39.6875 v -6.61459 m 6.614584,0 -10e-7,13.22917 H 13.229167 v -19.84375"
       id="path974"
       sodipodi:nodetypes="ccccccccccc" />
    <path
       style="fill:none;stroke:#000000;stroke-width:0.264583px;stroke-linecap:butt;stroke-linejoin:miter;stroke-opacity:1"
       d="m 13.229167,138.90625 v 13.22917 H 0 v -19.84375 h 13.229167"
       id="path976"
       sodipodi:nodetypes="ccccc" />
    <path
       style="fill:none;stroke:#000000;stroke-width:0.264583px;stroke-linecap:butt;stroke-linejoin:miter;stroke-opacity:1"
       d="m 19.843751,85.989586 6.614583,-2e-6 6.614582,-2e-6 -6.614583,6.614584 V 112.44792 L 39.6875,125.67708 v 13.22917 m 0,6.61458 H 19.84375 m 0,-6.61458 v -6.61458 H 6.6145832 v -6.61459 -13.22916 H 0 L 5.9999971e-7,85.989584 13.229168,85.989586"
       id="path978"
       sodipodi:nodetypes="ccccccccccccccccc" />
    <path
       style="fill:none;stroke:#000000;stroke-width:0.264583px;stroke-linecap:butt;stroke-linejoin:miter;stroke-opacity:1"
       d="M 26.458333,99.218749 H 19.84375 v 13.229171 h 6.614583 z"
       id="path980" />
    <path
       style="fill:none;stroke:#000000;stroke-width:0.264583px;stroke-linecap:butt;stroke-linejoin:miter;stroke-opacity:1"
       d="M 6.6145832,112.44792 H -6.6145832 v 13.22916 H 6.6145832 Z"
       id="path982" />
    <path
       style="fill:none;stroke:#000000;stroke-width:0.264583px;stroke-linecap:butt;stroke-linejoin:miter;stroke-opacity:1"
       d="m 0,105.83333 h -6.6145832 v 6.61459 H -33.072916 V 79.375001 H 0 v 6.614583 h -26.458333 v 19.843746 h 13.229166 V 99.218749 H 0 Z"
       id="path984"
       sodipodi:nodetypes="ccccccccccccc" />
    <path
       style="fill:none;stroke:#000000;stroke-width:0.264583px;stroke-linecap:butt;stroke-linejoin:miter;stroke-opacity:1"
       d="m 5.9999971e-7,79.375002 v 6.614582 H 13.229168 m 6.614583,2e-6 6.614583,-2e-6 6.614582,-2e-6 10e-7,-6.614581 m -6.614582,2e-6 -19.843751,-1e-6"
       id="path986"
       sodipodi:nodetypes="ccccccccc" />
    <path
       style="fill:none;stroke:#000000;stroke-width:0.264583px;stroke-linecap:butt;stroke-linejoin:miter;stroke-opacity:1"
       d="m 6.6145834,79.375001 v -6.614583 m 0,-6.614583 -2e-7,-6.614585 -19.8437502,10e-7 v 19.84375 H 0"
       id="path988"
       sodipodi:nodetypes="ccccccc" />
    <path
       style="fill:none;stroke:#000000;stroke-width:0.264583px;stroke-linecap:butt;stroke-linejoin:miter;stroke-opacity:1"
       d="M 6.6145832,72.760417 H 13.229167 V 59.531251 m -6.6145838,0 v 6.614583"
       id="path990"
       sodipodi:nodetypes="ccccc" />
    <path
       style="fill:none;stroke:#000000;stroke-width:0.264583px;stroke-linecap:butt;stroke-linejoin:miter;stroke-opacity:1"
       d="m 13.229167,59.531251 6.614583,-6.614583 v -6.614584 m 0,-6.614583 V 26.458334 l -6.614583,-6.614582 h -39.6875 l -6.614583,6.614582 v 26.458333 l 6.614583,6.614583 33.0729162,10e-7"
       id="path992"
       sodipodi:nodetypes="ccccccccccc" />
    <path
       style="fill:none;stroke:#000000;stroke-width:0.264583px;stroke-linecap:butt;stroke-linejoin:miter;stroke-opacity:1"
       d="M -13.229167,19.84375 V 6.6145832 H -19.84375 V -2e-7 H -6.6145834 V 19.84375 Z"
       id="path994"
       sodipodi:nodetypes="ccccccc" />
    <path
       style="fill:none;stroke:#000000;stroke-width:0.264583px;stroke-linecap:butt;stroke-linejoin:miter;stroke-opacity:1"
       d="m -39.6875,6.6145834 6.614584,6.6145836 h 6.614583 L -19.84375,6.6145834 V -2e-7 l -6.614583,-6.6145834 h -6.614583 L -39.6875,-2e-7 Z"
       id="path996"
       sodipodi:nodetypes="ccccccccc" />
    <path
       style="fill:none;stroke:#000000;stroke-width:0.264583px;stroke-linecap:butt;stroke-linejoin:miter;stroke-opacity:1"
       d="m 19.843751,39.687502 h 13.229166 v 19.843749 m -6.614582,2e-6 -1e-6,-13.229168 h -6.614583"
       id="path998"
       sodipodi:nodetypes="cccccc" />
    <path
       style="fill:none;stroke:#000000;stroke-width:0.264583px;stroke-linecap:butt;stroke-linejoin:miter;stroke-opacity:1"
       d="m 59.531251,59.531251 v -19.84375 h 6.614583 v 19.84375 z"
       id="path1000"
       sodipodi:nodetypes="ccccc" />
    <path
       style="fill:none;stroke:#000000;stroke-width:0.264583px;stroke-linecap:butt;stroke-linejoin:miter;stroke-opacity:1"
       d="m 85.989586,59.531252 -2e-6,-19.843751 m -6.614581,1e-6 -13.229169,-1e-6 v 19.84375 l 13.229169,1e-6"
       id="path1002"
       sodipodi:nodetypes="cccccc" />
    <path
       style="fill:none;stroke:#000000;stroke-width:0.264583px;stroke-linecap:butt;stroke-linejoin:miter;stroke-opacity:1"
       d="m 39.6875,79.375001 39.687499,-2e-6 6.614583,6.614583 m 6.614584,0 10e-7,-19.843748 -6.614584,-6.614583 m -6.614582,0 H 33.072917 m -6.614583,0 v 19.84375"
       id="path1004"
       sodipodi:nodetypes="cccccccccc" />
    <path
       style="fill:none;stroke:#000000;stroke-width:0.264583px;stroke-linecap:butt;stroke-linejoin:miter;stroke-opacity:1"
       d="m 92.604166,85.989582 v 6.614584 h 6.614583 V 119.0625 H 85.989582 l 2e-6,-26.458332"
       id="path1006"
       sodipodi:nodetypes="cccccc" />
    <path
       style="fill:none;stroke:#000000;stroke-width:0.264583px;stroke-linecap:butt;stroke-linejoin:miter;stroke-opacity:1"
       d="m 66.145834,33.072917 -2e-6,6.614583 h 13.229169 m 6.614583,0 h 6.614582 v -6.614584 l -19.843749,10e-7"
       id="path1008"
       sodipodi:nodetypes="ccccccc" />
    <path
       style="fill:none;stroke:#000000;stroke-width:0.264583px;stroke-linecap:butt;stroke-linejoin:miter;stroke-opacity:1"
       d="m 92.604166,33.072916 -19.843749,10e-7 m -6.614583,0 -2e-6,-66.145833 h 26.458334"
       id="path1010"
       sodipodi:nodetypes="ccccc" />
    <path
       style="fill:none;stroke:#000000;stroke-width:0.264583px;stroke-linecap:butt;stroke-linejoin:miter;stroke-opacity:1"
       d="m 112.44792,79.374999 v -19.84375 h 52.91666 v 13.229167 h -39.6875 v 6.614583 z"
       id="path1012" />
    <path
       style="fill:none;stroke:#000000;stroke-width:0.264583px;stroke-linecap:butt;stroke-linejoin:miter;stroke-opacity:1"
       d="M 145.52083,59.531251 V 52.916666 H 158.75 v -6.614583 m 6.61458,0 v 13.229166 l -13.22916,2e-6"
       id="path1014"
       sodipodi:nodetypes="ccccccc" />
    <path
       style="fill:none;stroke:#000000;stroke-width:0.264583px;stroke-linecap:butt;stroke-linejoin:miter;stroke-dasharray:2.11666, 0.264583;stroke-dashoffset:0;stroke-opacity:1"
       d="M 132.29167,-33.072917 V 46.302084"
       id="path1016"
       sodipodi:nodetypes="cc" />
    <path
       style="fill:none;stroke:#000000;stroke-width:0.264583px;stroke-linecap:butt;stroke-linejoin:miter;stroke-opacity:1"
       d="m 39.6875,158.75 v 6.61458 H 19.84375 v 6.61459 H 46.302083 V 158.75 Z"
       id="path1018" />
    <path
       style="fill:none;stroke:#000000;stroke-width:0.265;stroke-linecap:butt;stroke-linejoin:miter;stroke-dasharray:0.265, 0.265;stroke-dashoffset:0;stroke-opacity:1"
       d="m -19.84375,165.36458 v 6.61459 h 39.6875 v -6.61459 z"
       id="path1020" />
    <path
       style="fill:none;stroke:#000000;stroke-width:0.264583px;stroke-linecap:butt;stroke-linejoin:miter;stroke-opacity:1"
       d="M 297.65625,231.51042 H 231.51042 165.36459"
       id="path1076"
       sodipodi:nodetypes="ccc" />
    <path
       style="fill:none;stroke:#000000;stroke-width:0.264583px;stroke-linecap:butt;stroke-linejoin:miter;stroke-opacity:1"
       d="M 231.51042,297.65625 V 238.125 m 0,-13.22916 v -59.53126"
       id="path1078"
       sodipodi:nodetypes="cccc" />
    <text
       xml:space="preserve"
       style="font-size:2.64583px;line-height:1.25;font-family:sans-serif;letter-spacing:0px;word-spacing:0px;stroke-width:0.264583"
       x="237.83432"
       y="239.08942"
       id="text1134"><tspan
         sodipodi:role="line"
         id="tspan1132"
         style="stroke-width:0.264583"
         x="237.83432"
         y="239.08942">1</tspan></text>
    <text
       xml:space="preserve"
       style="font-size:2.64583px;line-height:1.25;font-family:sans-serif;letter-spacing:0px;word-spacing:0px;stroke-width:0.264583"
       x="181.73309"
       y="211.30106"
       id="text1192"><tspan
         sodipodi:role="line"
         id="tspan1190"
         style="stroke-width:0.264583"
         x="181.73309"
         y="211.30106">Вход</tspan></text>
    <text
       xml:space="preserve"
       style="font-size:2.64583px;line-height:1.25;font-family:sans-serif;letter-spacing:0px;word-spacing:0px;stroke-width:0.264583"
       x="191.84683"
       y="199.12674"
       id="text1196"><tspan
         sodipodi:role="line"
         id="tspan1194"
         style="stroke-width:0.264583"
         x="191.84683"
         y="199.12674">Карусель</tspan></text>
    <path
       style="fill:none;stroke:#000000;stroke-width:0.264583px;stroke-linecap:butt;stroke-linejoin:miter;stroke-opacity:1"
       d="m 185.20833,218.28125 h 46.30209"
       id="path1248"
       sodipodi:nodetypes="cc" />
    <text
       xml:space="preserve"
       style="font-size:2.64583px;line-height:1.25;font-family:sans-serif;letter-spacing:0px;word-spacing:0px;stroke-width:0.264583"
       x="207.36784"
       y="212.46571"
       id="text1252"><tspan
         sodipodi:role="line"
         id="tspan1250"
         style="stroke-width:0.264583"
         x="207.36784"
         y="212.46571">Склад</tspan></text>
    <text
       xml:space="preserve"
       style="font-size:2.64583px;line-height:1.25;font-family:sans-serif;letter-spacing:0px;word-spacing:0px;stroke-width:0.264583"
       x="208.05513"
       y="185.89757"
       id="text1256"><tspan
         sodipodi:role="line"
         id="tspan1254"
         style="stroke-width:0.264583"
         x="208.05513"
         y="185.89757">Цирк</tspan></text>
    <text
       xml:space="preserve"
       style="font-size:2.64583px;line-height:1.25;font-family:sans-serif;letter-spacing:0px;word-spacing:0px;stroke-width:0.264583"
       x="191.18602"
       y="180.55745"
       id="text1260"><tspan
         sodipodi:role="line"
         id="tspan1258"
         style="stroke-width:0.264583"
         x="191.18602"
         y="180.55745">Зооуголок</tspan></text>
    <text
       xml:space="preserve"
       style="font-size:2.64583px;line-height:1.25;font-family:sans-serif;letter-spacing:0px;word-spacing:0px;stroke-width:0.264583"
       x="174.30009"
       y="185.89757"
       id="text1264"><tspan
         sodipodi:role="line"
         id="tspan1262"
         style="stroke-width:0.264583"
         x="174.30009"
         y="185.89757">Администратор</tspan></text>
    <path
       style="fill:none;stroke:#000000;stroke-width:0.264583px;stroke-linecap:butt;stroke-linejoin:miter;stroke-opacity:1"
       d="M 185.20833,198.4375 H 165.36459 V 165.36458"
       id="path1266"
       sodipodi:nodetypes="ccc" />
    <path
       style="fill:none;stroke:#000000;stroke-width:0.264583px;stroke-linecap:butt;stroke-linejoin:miter;stroke-dasharray:0.264583, 0.264583;stroke-dashoffset:0;stroke-opacity:1"
       d="m 165.36459,152.13542 v 13.22916"
       id="path1268"
       sodipodi:nodetypes="cc" />
  </g>
</svg>
